<svg xmlns="http://www.w3.org/2000/svg" viewBox="0 0 1000 1000" >
        <g color="green">
        <rect x="0" y="0" width="1000" height="1000" fill="white" stroke="gray"/><polygon points="860,251 860,675 436,505 436,81" fill="#FFFFFF" fill-opacity="0.2" stroke="#c0c0c0"/><polygon points="563,918 139,748 436,505 860,675" fill="#FFFFFF" fill-opacity="0.2" stroke="#c0c0c0"/><polygon points="139,748 139,324 436,81 436,505" fill="#FFFFFF" fill-opacity="0.2" stroke="#c0c0c0"/><circle cx="457" cy="543" r="6" fill="#FFB1B1"/><line x1="500" y1="500" x2="457" y2="543" stroke="blue" /><circle cx="586" cy="355" r="6" fill="#FFB1B1"/><line x1="457" y1="543" x2="586" y2="355" stroke="blue" /><circle cx="535" cy="635" r="6" fill="#FFB2B2"/><line x1="586" y1="355" x2="535" y2="635" stroke="blue" /><circle cx="546" cy="655" r="3" fill="#FFCDCD"/><line x1="535" y1="635" x2="546" y2="655" stroke="blue" /><circle cx="434" cy="386" r="6" fill="#FFAFAF"/><line x1="546" y1="655" x2="434" y2="386" stroke="blue" /><circle cx="458" cy="550" r="4" fill="#FFCACA"/><line x1="434" y1="386" x2="458" y2="550" stroke="blue" /><circle cx="469" cy="563" r="4" fill="#FFC4C4"/><line x1="458" y1="550" x2="469" y2="563" stroke="blue" /><circle cx="465" cy="602" r="3" fill="#FFCFCF"/><line x1="469" y1="563" x2="465" y2="602" stroke="blue" /><circle cx="563" cy="527" r="4" fill="#FFC6C6"/><line x1="465" y1="602" x2="563" y2="527" stroke="blue" /><circle cx="602" cy="503" r="4" fill="#FFC7C7"/><line x1="563" y1="527" x2="602" y2="503" stroke="blue" /><circle cx="408" cy="687" r="4" fill="#FFC7C7"/><line x1="602" y1="503" x2="408" y2="687" stroke="blue" /><circle cx="487" cy="415" r="4" fill="#FFC4C4"/><line x1="408" y1="687" x2="487" y2="415" stroke="blue" /><circle cx="500" cy="567" r="2" fill="#FFDADA"/><line x1="487" y1="415" x2="500" y2="567" stroke="blue" /><circle cx="596" cy="508" r="3" fill="#FFD6D6"/><line x1="500" y1="567" x2="596" y2="508" stroke="blue" /><circle cx="474" cy="599" r="3" fill="#FFCDCD"/><line x1="596" y1="508" x2="474" y2="599" stroke="blue" /><circle cx="545" cy="525" r="3" fill="#FFCECE"/><line x1="474" y1="599" x2="545" y2="525" stroke="blue" /><circle cx="608" cy="475" r="2" fill="#FFDBDB"/><line x1="545" y1="525" x2="608" y2="475" stroke="blue" /><circle cx="442" cy="330" r="5" fill="#FFB6B6"/><line x1="608" y1="475" x2="442" y2="330" stroke="blue" /><circle cx="442" cy="405" r="6" fill="#FFAFAF"/><line x1="442" y1="330" x2="442" y2="405" stroke="blue" /><circle cx="577" cy="559" r="2" fill="#FFDEDE"/><line x1="442" y1="405" x2="577" y2="559" stroke="blue" /><circle cx="470" cy="535" r="4" fill="#FFC4C4"/><line x1="577" y1="559" x2="470" y2="535" stroke="blue" /><circle cx="477" cy="425" r="5" fill="#FFB3B3"/><line x1="470" y1="535" x2="477" y2="425" stroke="blue" /><circle cx="505" cy="633" r="3" fill="#FFD4D4"/><line x1="477" y1="425" x2="505" y2="633" stroke="blue" /><circle cx="513" cy="420" r="5" fill="#FFBBBB"/><line x1="505" y1="633" x2="513" y2="420" stroke="blue" /><circle cx="490" cy="442" r="6" fill="#FFABAB"/><line x1="513" y1="420" x2="490" y2="442" stroke="blue" /><circle cx="380" cy="806" r="4" fill="#FFBFBF"/><line x1="490" y1="442" x2="380" y2="806" stroke="blue" /><circle cx="494" cy="243" r="4" fill="#FFC9C9"/><line x1="380" y1="806" x2="494" y2="243" stroke="blue" /><circle cx="525" cy="324" r="4" fill="#FFC1C1"/><line x1="494" y1="243" x2="525" y2="324" stroke="blue" /><circle cx="664" cy="432" r="5" fill="#FFBBBB"/><line x1="525" y1="324" x2="664" y2="432" stroke="blue" /><circle cx="303" cy="437" r="6" fill="#FFACAC"/><line x1="664" y1="432" x2="303" y2="437" stroke="blue" /><circle cx="274" cy="532" r="3" fill="#FFCCCC"/><line x1="303" y1="437" x2="274" y2="532" stroke="blue" /><circle cx="479" cy="632" r="4" fill="#FFCBCB"/><line x1="274" y1="532" x2="479" y2="632" stroke="blue" /><circle cx="403" cy="720" r="4" fill="#FFCBCB"/><line x1="479" y1="632" x2="403" y2="720" stroke="blue" /><circle cx="601" cy="337" r="4" fill="#FFC9C9"/><line x1="403" y1="720" x2="601" y2="337" stroke="blue" /><circle cx="496" cy="647" r="4" fill="#FFCACA"/><line x1="601" y1="337" x2="496" y2="647" stroke="blue" /><circle cx="427" cy="368" r="6" fill="#FFB0B0"/><line x1="496" y1="647" x2="427" y2="368" stroke="blue" /><circle cx="423" cy="584" r="5" fill="#FFBEBE"/><line x1="427" y1="368" x2="423" y2="584" stroke="blue" /><circle cx="681" cy="390" r="5" fill="#FFBABA"/><line x1="423" y1="584" x2="681" y2="390" stroke="blue" /><circle cx="547" cy="311" r="4" fill="#FFC2C2"/><line x1="681" y1="390" x2="547" y2="311" stroke="blue" /><circle cx="544" cy="647" r="4" fill="#FFC6C6"/><line x1="547" y1="311" x2="544" y2="647" stroke="blue" /><circle cx="614" cy="438" r="3" fill="#FFCCCC"/><line x1="544" y1="647" x2="614" y2="438" stroke="blue" /><circle cx="479" cy="587" r="5" fill="#FFB9B9"/><line x1="614" y1="438" x2="479" y2="587" stroke="blue" /><circle cx="492" cy="199" r="4" fill="#FFCACA"/><line x1="479" y1="587" x2="492" y2="199" stroke="blue" /><polygon points="563,494 860,251 860,675 563,918" fill="#FFFFFF" fill-opacity="0.1" stroke="#202020"/><polygon points="563,494 139,324 436,81 860,251" fill="#FFFFFF" fill-opacity="0.1" stroke="#202020"/><polygon points="563,494 563,918 139,748 139,324" fill="#FFFFFF" fill-opacity="0.1" stroke="#202020"/> </g>
        </svg>