<svg xmlns="http://www.w3.org/2000/svg" viewBox="0 0 1000 1000" >
        <g color="green">
        <rect x="0" y="0" width="1000" height="1000" fill="white" stroke="gray"/><polygon points="860,251 860,675 436,505 436,81" fill="#FFFFFF" fill-opacity="0.2" stroke="#c0c0c0"/><polygon points="563,918 139,748 436,505 860,675" fill="#FFFFFF" fill-opacity="0.2" stroke="#c0c0c0"/><polygon points="139,748 139,324 436,81 436,505" fill="#FFFFFF" fill-opacity="0.2" stroke="#c0c0c0"/><circle cx="434" cy="505" r="10" fill="#FF7B7B"/><line x1="500" y1="500" x2="434" y2="505" stroke="blue" /><circle cx="433" cy="567" r="10" fill="#FF7A7A"/><line x1="434" y1="505" x2="433" y2="567" stroke="blue" /><circle cx="410" cy="539" r="8" fill="#FF9797"/><line x1="433" y1="567" x2="410" y2="539" stroke="blue" /><circle cx="598" cy="483" r="6" fill="#FFACAC"/><line x1="410" y1="539" x2="598" y2="483" stroke="blue" /><circle cx="639" cy="489" r="9" fill="#FF8686"/><line x1="598" y1="483" x2="639" y2="489" stroke="blue" /><circle cx="722" cy="436" r="9" fill="#FF8989"/><line x1="639" y1="489" x2="722" y2="436" stroke="blue" /><circle cx="473" cy="243" r="10" fill="#FF7B7B"/><line x1="722" y1="436" x2="473" y2="243" stroke="blue" /><circle cx="333" cy="614" r="12" fill="#FF5C5C"/><line x1="473" y1="243" x2="333" y2="614" stroke="blue" /><circle cx="454" cy="620" r="14" fill="#FF4646"/><line x1="333" y1="614" x2="454" y2="620" stroke="blue" /><polygon points="563,494 860,251 860,675 563,918" fill="#FFFFFF" fill-opacity="0.1" stroke="#202020"/><polygon points="563,494 139,324 436,81 860,251" fill="#FFFFFF" fill-opacity="0.1" stroke="#202020"/><polygon points="563,494 563,918 139,748 139,324" fill="#FFFFFF" fill-opacity="0.1" stroke="#202020"/> </g>
        </svg>