<svg xmlns="http://www.w3.org/2000/svg" viewBox="0 0 1000 1000" >
        <g color="green">
        <rect x="0" y="0" width="1000" height="1000" fill="white" stroke="gray"/><polygon points="860,251 860,675 436,505 436,81" fill="#FFFFFF" fill-opacity="0.2" stroke="#c0c0c0"/><polygon points="563,918 139,748 436,505 860,675" fill="#FFFFFF" fill-opacity="0.2" stroke="#c0c0c0"/><polygon points="139,748 139,324 436,81 436,505" fill="#FFFFFF" fill-opacity="0.2" stroke="#c0c0c0"/><circle cx="486" cy="457" r="2" fill="#FFE3E3"/><line x1="500" y1="500" x2="486" y2="457" stroke="blue" /><circle cx="383" cy="713" r="1" fill="#FFE7E7"/><line x1="486" y1="457" x2="383" y2="713" stroke="blue" /><circle cx="445" cy="671" r="1" fill="#FFE9E9"/><line x1="383" y1="713" x2="445" y2="671" stroke="blue" /><circle cx="476" cy="573" r="1" fill="#FFE7E7"/><line x1="445" y1="671" x2="476" y2="573" stroke="blue" /><circle cx="409" cy="658" r="2" fill="#FFE4E4"/><line x1="476" y1="573" x2="409" y2="658" stroke="blue" /><circle cx="371" cy="667" r="2" fill="#FFE4E4"/><line x1="409" y1="658" x2="371" y2="667" stroke="blue" /><circle cx="503" cy="535" r="2" fill="#FFE5E5"/><line x1="371" y1="667" x2="503" y2="535" stroke="blue" /><circle cx="482" cy="534" r="1" fill="#FFE6E6"/><line x1="503" y1="535" x2="482" y2="534" stroke="blue" /><circle cx="548" cy="426" r="1" fill="#FFEAEA"/><line x1="482" y1="534" x2="548" y2="426" stroke="blue" /><circle cx="622" cy="436" r="1" fill="#FFEAEA"/><line x1="548" y1="426" x2="622" y2="436" stroke="blue" /><circle cx="517" cy="471" r="1" fill="#FFE5E5"/><line x1="622" y1="436" x2="517" y2="471" stroke="blue" /><circle cx="436" cy="663" r="2" fill="#FFE3E3"/><line x1="517" y1="471" x2="436" y2="663" stroke="blue" /><circle cx="347" cy="666" r="2" fill="#FFE3E3"/><line x1="436" y1="663" x2="347" y2="666" stroke="blue" /><circle cx="512" cy="527" r="1" fill="#FFEAEA"/><line x1="347" y1="666" x2="512" y2="527" stroke="blue" /><circle cx="407" cy="693" r="1" fill="#FFE9E9"/><line x1="512" y1="527" x2="407" y2="693" stroke="blue" /><circle cx="579" cy="514" r="1" fill="#FFEFEF"/><line x1="407" y1="693" x2="579" y2="514" stroke="blue" /><circle cx="509" cy="688" r="1" fill="#FFEBEB"/><line x1="579" y1="514" x2="509" y2="688" stroke="blue" /><circle cx="386" cy="682" r="2" fill="#FFE5E5"/><line x1="509" y1="688" x2="386" y2="682" stroke="blue" /><circle cx="510" cy="557" r="1" fill="#FFE7E7"/><line x1="386" y1="682" x2="510" y2="557" stroke="blue" /><circle cx="528" cy="558" r="1" fill="#FFE7E7"/><line x1="510" y1="557" x2="528" y2="558" stroke="blue" /><circle cx="467" cy="713" r="1" fill="#FFE8E8"/><line x1="528" y1="558" x2="467" y2="713" stroke="blue" /><circle cx="467" cy="330" r="1" fill="#FFEDED"/><line x1="467" y1="713" x2="467" y2="330" stroke="blue" /><circle cx="405" cy="370" r="2" fill="#FFDEDE"/><line x1="467" y1="330" x2="405" y2="370" stroke="blue" /><circle cx="479" cy="643" r="1" fill="#FFECEC"/><line x1="405" y1="370" x2="479" y2="643" stroke="blue" /><circle cx="475" cy="633" r="1" fill="#FFE9E9"/><line x1="479" y1="643" x2="475" y2="633" stroke="blue" /><circle cx="502" cy="642" r="1" fill="#FFEAEA"/><line x1="475" y1="633" x2="502" y2="642" stroke="blue" /><circle cx="518" cy="380" r="2" fill="#FFE4E4"/><line x1="502" y1="642" x2="518" y2="380" stroke="blue" /><circle cx="507" cy="276" r="1" fill="#FFE5E5"/><line x1="518" y1="380" x2="507" y2="276" stroke="blue" /><circle cx="560" cy="544" r="1" fill="#FFF0F0"/><line x1="507" y1="276" x2="560" y2="544" stroke="blue" /><circle cx="462" cy="721" r="1" fill="#FFE7E7"/><line x1="560" y1="544" x2="462" y2="721" stroke="blue" /><circle cx="550" cy="439" r="1" fill="#FFE7E7"/><line x1="462" y1="721" x2="550" y2="439" stroke="blue" /><circle cx="580" cy="364" r="1" fill="#FFEAEA"/><line x1="550" y1="439" x2="580" y2="364" stroke="blue" /><circle cx="352" cy="579" r="2" fill="#FFE1E1"/><line x1="580" y1="364" x2="352" y2="579" stroke="blue" /><circle cx="539" cy="280" r="1" fill="#FFE6E6"/><line x1="352" y1="579" x2="539" y2="280" stroke="blue" /><circle cx="441" cy="623" r="1" fill="#FFE7E7"/><line x1="539" y1="280" x2="441" y2="623" stroke="blue" /><circle cx="477" cy="693" r="1" fill="#FFE8E8"/><line x1="441" y1="623" x2="477" y2="693" stroke="blue" /><circle cx="514" cy="280" r="2" fill="#FFE4E4"/><line x1="477" y1="693" x2="514" y2="280" stroke="blue" /><circle cx="407" cy="685" r="1" fill="#FFE6E6"/><line x1="514" y1="280" x2="407" y2="685" stroke="blue" /><circle cx="513" cy="552" r="1" fill="#FFE9E9"/><line x1="407" y1="685" x2="513" y2="552" stroke="blue" /><circle cx="437" cy="390" r="2" fill="#FFE0E0"/><line x1="513" y1="552" x2="437" y2="390" stroke="blue" /><circle cx="597" cy="386" r="1" fill="#FFECEC"/><line x1="437" y1="390" x2="597" y2="386" stroke="blue" /><circle cx="459" cy="343" r="2" fill="#FFE0E0"/><line x1="597" y1="386" x2="459" y2="343" stroke="blue" /><circle cx="499" cy="525" r="1" fill="#FFE6E6"/><line x1="459" y1="343" x2="499" y2="525" stroke="blue" /><circle cx="508" cy="479" r="2" fill="#FFE3E3"/><line x1="499" y1="525" x2="508" y2="479" stroke="blue" /><circle cx="575" cy="243" r="1" fill="#FFE9E9"/><line x1="508" y1="479" x2="575" y2="243" stroke="blue" /><circle cx="480" cy="535" r="2" fill="#FFE0E0"/><line x1="575" y1="243" x2="480" y2="535" stroke="blue" /><circle cx="528" cy="640" r="1" fill="#FFEDED"/><line x1="480" y1="535" x2="528" y2="640" stroke="blue" /><circle cx="489" cy="436" r="2" fill="#FFE4E4"/><line x1="528" y1="640" x2="489" y2="436" stroke="blue" /><circle cx="467" cy="655" r="1" fill="#FFEAEA"/><line x1="489" y1="436" x2="467" y2="655" stroke="blue" /><circle cx="567" cy="475" r="1" fill="#FFECEC"/><line x1="467" y1="655" x2="567" y2="475" stroke="blue" /><circle cx="541" cy="524" r="1" fill="#FFEAEA"/><line x1="567" y1="475" x2="541" y2="524" stroke="blue" /><circle cx="388" cy="650" r="1" fill="#FFE6E6"/><line x1="541" y1="524" x2="388" y2="650" stroke="blue" /><circle cx="436" cy="477" r="2" fill="#FFE3E3"/><line x1="388" y1="650" x2="436" y2="477" stroke="blue" /><circle cx="546" cy="587" r="1" fill="#FFEEEE"/><line x1="436" y1="477" x2="546" y2="587" stroke="blue" /><circle cx="648" cy="594" r="1" fill="#FFEFEF"/><line x1="546" y1="587" x2="648" y2="594" stroke="blue" /><circle cx="634" cy="515" r="1" fill="#FFEEEE"/><line x1="648" y1="594" x2="634" y2="515" stroke="blue" /><circle cx="552" cy="594" r="1" fill="#FFF1F1"/><line x1="634" y1="515" x2="552" y2="594" stroke="blue" /><circle cx="508" cy="608" r="1" fill="#FFF1F1"/><line x1="552" y1="594" x2="508" y2="608" stroke="blue" /><circle cx="322" cy="439" r="2" fill="#FFDDDD"/><line x1="508" y1="608" x2="322" y2="439" stroke="blue" /><circle cx="506" cy="468" r="1" fill="#FFE7E7"/><line x1="322" y1="439" x2="506" y2="468" stroke="blue" /><circle cx="584" cy="489" r="1" fill="#FFF0F0"/><line x1="506" y1="468" x2="584" y2="489" stroke="blue" /><circle cx="509" cy="402" r="1" fill="#FFE7E7"/><line x1="584" y1="489" x2="509" y2="402" stroke="blue" /><circle cx="572" cy="319" r="1" fill="#FFEBEB"/><line x1="509" y1="402" x2="572" y2="319" stroke="blue" /><circle cx="576" cy="241" r="1" fill="#FFE7E7"/><line x1="572" y1="319" x2="576" y2="241" stroke="blue" /><circle cx="525" cy="398" r="2" fill="#FFE5E5"/><line x1="576" y1="241" x2="525" y2="398" stroke="blue" /><circle cx="540" cy="263" r="1" fill="#FFE6E6"/><line x1="525" y1="398" x2="540" y2="263" stroke="blue" /><circle cx="583" cy="523" r="1" fill="#FFF1F1"/><line x1="540" y1="263" x2="583" y2="523" stroke="blue" /><circle cx="514" cy="604" r="1" fill="#FFEFEF"/><line x1="583" y1="523" x2="514" y2="604" stroke="blue" /><circle cx="543" cy="553" r="1" fill="#FFECEC"/><line x1="514" y1="604" x2="543" y2="553" stroke="blue" /><circle cx="510" cy="628" r="1" fill="#FFEDED"/><line x1="543" y1="553" x2="510" y2="628" stroke="blue" /><circle cx="595" cy="485" r="1" fill="#FFEDED"/><line x1="510" y1="628" x2="595" y2="485" stroke="blue" /><circle cx="583" cy="324" r="1" fill="#FFECEC"/><line x1="595" y1="485" x2="583" y2="324" stroke="blue" /><circle cx="429" cy="466" r="2" fill="#FFDFDF"/><line x1="583" y1="324" x2="429" y2="466" stroke="blue" /><circle cx="540" cy="500" r="1" fill="#FFEBEB"/><line x1="429" y1="466" x2="540" y2="500" stroke="blue" /><circle cx="333" cy="707" r="1" fill="#FFE6E6"/><line x1="540" y1="500" x2="333" y2="707" stroke="blue" /><circle cx="554" cy="563" r="1" fill="#FFEFEF"/><line x1="333" y1="707" x2="554" y2="563" stroke="blue" /><circle cx="458" cy="371" r="2" fill="#FFE1E1"/><line x1="554" y1="563" x2="458" y2="371" stroke="blue" /><circle cx="594" cy="353" r="1" fill="#FFEBEB"/><line x1="458" y1="371" x2="594" y2="353" stroke="blue" /><circle cx="415" cy="467" r="0" fill="#FFF3F3"/><line x1="594" y1="353" x2="415" y2="467" stroke="blue" /><circle cx="589" cy="472" r="1" fill="#FFEEEE"/><line x1="415" y1="467" x2="589" y2="472" stroke="blue" /><circle cx="538" cy="244" r="1" fill="#FFE8E8"/><line x1="589" y1="472" x2="538" y2="244" stroke="blue" /><circle cx="347" cy="694" r="1" fill="#FFE6E6"/><line x1="538" y1="244" x2="347" y2="694" stroke="blue" /><circle cx="456" cy="295" r="1" fill="#FFEFEF"/><line x1="347" y1="694" x2="456" y2="295" stroke="blue" /><circle cx="500" cy="514" r="1" fill="#FFE7E7"/><line x1="456" y1="295" x2="500" y2="514" stroke="blue" /><circle cx="508" cy="619" r="1" fill="#FFEEEE"/><line x1="500" y1="514" x2="508" y2="619" stroke="blue" /><circle cx="503" cy="642" r="1" fill="#FFEDED"/><line x1="508" y1="619" x2="503" y2="642" stroke="blue" /><circle cx="446" cy="608" r="1" fill="#FFE8E8"/><line x1="503" y1="642" x2="446" y2="608" stroke="blue" /><circle cx="347" cy="693" r="2" fill="#FFE4E4"/><line x1="446" y1="608" x2="347" y2="693" stroke="blue" /><circle cx="530" cy="429" r="1" fill="#FFE6E6"/><line x1="347" y1="693" x2="530" y2="429" stroke="blue" /><circle cx="625" cy="323" r="1" fill="#FFE8E8"/><line x1="530" y1="429" x2="625" y2="323" stroke="blue" /><circle cx="562" cy="322" r="1" fill="#FFE8E8"/><line x1="625" y1="323" x2="562" y2="322" stroke="blue" /><circle cx="245" cy="576" r="1" fill="#FFE5E5"/><line x1="562" y1="322" x2="245" y2="576" stroke="blue" /><circle cx="390" cy="473" r="2" fill="#FFE1E1"/><line x1="245" y1="576" x2="390" y2="473" stroke="blue" /><circle cx="514" cy="599" r="1" fill="#FFF1F1"/><line x1="390" y1="473" x2="514" y2="599" stroke="blue" /><circle cx="454" cy="621" r="1" fill="#FFE6E6"/><line x1="514" y1="599" x2="454" y2="621" stroke="blue" /><circle cx="555" cy="477" r="1" fill="#FFE8E8"/><line x1="454" y1="621" x2="555" y2="477" stroke="blue" /><circle cx="447" cy="374" r="2" fill="#FFE0E0"/><line x1="555" y1="477" x2="447" y2="374" stroke="blue" /><circle cx="457" cy="684" r="1" fill="#FFE9E9"/><line x1="447" y1="374" x2="457" y2="684" stroke="blue" /><circle cx="447" cy="641" r="1" fill="#FFE7E7"/><line x1="457" y1="684" x2="447" y2="641" stroke="blue" /><circle cx="474" cy="586" r="1" fill="#FFE8E8"/><line x1="447" y1="641" x2="474" y2="586" stroke="blue" /><circle cx="497" cy="689" r="1" fill="#FFE9E9"/><line x1="474" y1="586" x2="497" y2="689" stroke="blue" /><circle cx="359" cy="579" r="2" fill="#FFE0E0"/><line x1="497" y1="689" x2="359" y2="579" stroke="blue" /><circle cx="499" cy="424" r="1" fill="#FFF0F0"/><line x1="359" y1="579" x2="499" y2="424" stroke="blue" /><circle cx="548" cy="504" r="1" fill="#FFE9E9"/><line x1="499" y1="424" x2="548" y2="504" stroke="blue" /><circle cx="471" cy="614" r="1" fill="#FFE7E7"/><line x1="548" y1="504" x2="471" y2="614" stroke="blue" /><circle cx="485" cy="354" r="2" fill="#FFE2E2"/><line x1="471" y1="614" x2="485" y2="354" stroke="blue" /><circle cx="557" cy="643" r="1" fill="#FFEEEE"/><line x1="485" y1="354" x2="557" y2="643" stroke="blue" /><circle cx="543" cy="359" r="1" fill="#FFE6E6"/><line x1="557" y1="643" x2="543" y2="359" stroke="blue" /><circle cx="672" cy="389" r="1" fill="#FFE6E6"/><line x1="543" y1="359" x2="672" y2="389" stroke="blue" /><circle cx="503" cy="552" r="1" fill="#FFE7E7"/><line x1="672" y1="389" x2="503" y2="552" stroke="blue" /><circle cx="556" cy="444" r="1" fill="#FFE9E9"/><line x1="503" y1="552" x2="556" y2="444" stroke="blue" /><circle cx="589" cy="463" r="1" fill="#FFEFEF"/><line x1="556" y1="444" x2="589" y2="463" stroke="blue" /><circle cx="591" cy="436" r="1" fill="#FFECEC"/><line x1="589" y1="463" x2="591" y2="436" stroke="blue" /><circle cx="539" cy="585" r="1" fill="#FFEBEB"/><line x1="591" y1="436" x2="539" y2="585" stroke="blue" /><circle cx="452" cy="446" r="2" fill="#FFE1E1"/><line x1="539" y1="585" x2="452" y2="446" stroke="blue" /><circle cx="573" cy="504" r="1" fill="#FFEFEF"/><line x1="452" y1="446" x2="573" y2="504" stroke="blue" /><circle cx="529" cy="561" r="1" fill="#FFE8E8"/><line x1="573" y1="504" x2="529" y2="561" stroke="blue" /><circle cx="556" cy="653" r="1" fill="#FFECEC"/><line x1="529" y1="561" x2="556" y2="653" stroke="blue" /><circle cx="508" cy="598" r="1" fill="#FFEAEA"/><line x1="556" y1="653" x2="508" y2="598" stroke="blue" /><circle cx="495" cy="518" r="2" fill="#FFE4E4"/><line x1="508" y1="598" x2="495" y2="518" stroke="blue" /><circle cx="478" cy="361" r="2" fill="#FFE0E0"/><line x1="495" y1="518" x2="478" y2="361" stroke="blue" /><circle cx="494" cy="656" r="1" fill="#FFE8E8"/><line x1="478" y1="361" x2="494" y2="656" stroke="blue" /><circle cx="560" cy="563" r="0" fill="#FFF2F2"/><line x1="494" y1="656" x2="560" y2="563" stroke="blue" /><circle cx="633" cy="361" r="1" fill="#FFE9E9"/><line x1="560" y1="563" x2="633" y2="361" stroke="blue" /><circle cx="464" cy="413" r="2" fill="#FFE3E3"/><line x1="633" y1="361" x2="464" y2="413" stroke="blue" /><circle cx="545" cy="446" r="2" fill="#FFE4E4"/><line x1="464" y1="413" x2="545" y2="446" stroke="blue" /><circle cx="677" cy="727" r="1" fill="#FFE8E8"/><line x1="545" y1="446" x2="677" y2="727" stroke="blue" /><circle cx="543" cy="360" r="1" fill="#FFE6E6"/><line x1="677" y1="727" x2="543" y2="360" stroke="blue" /><circle cx="465" cy="619" r="1" fill="#FFE6E6"/><line x1="543" y1="360" x2="465" y2="619" stroke="blue" /><circle cx="414" cy="430" r="2" fill="#FFDCDC"/><line x1="465" y1="619" x2="414" y2="430" stroke="blue" /><circle cx="555" cy="280" r="1" fill="#FFE7E7"/><line x1="414" y1="430" x2="555" y2="280" stroke="blue" /><circle cx="579" cy="367" r="1" fill="#FFE9E9"/><line x1="555" y1="280" x2="579" y2="367" stroke="blue" /><circle cx="492" cy="499" r="0" fill="#FFF3F3"/><line x1="579" y1="367" x2="492" y2="499" stroke="blue" /><circle cx="420" cy="694" r="1" fill="#FFE9E9"/><line x1="492" y1="499" x2="420" y2="694" stroke="blue" /><circle cx="289" cy="669" r="1" fill="#FFE6E6"/><line x1="420" y1="694" x2="289" y2="669" stroke="blue" /><circle cx="392" cy="430" r="2" fill="#FFDFDF"/><line x1="289" y1="669" x2="392" y2="430" stroke="blue" /><circle cx="544" cy="542" r="1" fill="#FFF2F2"/><line x1="392" y1="430" x2="544" y2="542" stroke="blue" /><circle cx="482" cy="616" r="1" fill="#FFE9E9"/><line x1="544" y1="542" x2="482" y2="616" stroke="blue" /><circle cx="560" cy="610" r="1" fill="#FFECEC"/><line x1="482" y1="616" x2="560" y2="610" stroke="blue" /><circle cx="574" cy="475" r="1" fill="#FFE5E5"/><line x1="560" y1="610" x2="574" y2="475" stroke="blue" /><circle cx="453" cy="448" r="2" fill="#FFE2E2"/><line x1="574" y1="475" x2="453" y2="448" stroke="blue" /><circle cx="450" cy="409" r="2" fill="#FFE1E1"/><line x1="453" y1="448" x2="450" y2="409" stroke="blue" /><circle cx="452" cy="664" r="1" fill="#FFE5E5"/><line x1="450" y1="409" x2="452" y2="664" stroke="blue" /><circle cx="589" cy="454" r="1" fill="#FFEFEF"/><line x1="452" y1="664" x2="589" y2="454" stroke="blue" /><circle cx="568" cy="475" r="1" fill="#FFEBEB"/><line x1="589" y1="454" x2="568" y2="475" stroke="blue" /><circle cx="630" cy="379" r="1" fill="#FFE9E9"/><line x1="568" y1="475" x2="630" y2="379" stroke="blue" /><circle cx="498" cy="540" r="1" fill="#FFE8E8"/><line x1="630" y1="379" x2="498" y2="540" stroke="blue" /><circle cx="565" cy="559" r="0" fill="#FFF4F4"/><line x1="498" y1="540" x2="565" y2="559" stroke="blue" /><circle cx="622" cy="559" r="1" fill="#FFEFEF"/><line x1="565" y1="559" x2="622" y2="559" stroke="blue" /><circle cx="516" cy="596" r="1" fill="#FFECEC"/><line x1="622" y1="559" x2="516" y2="596" stroke="blue" /><circle cx="481" cy="661" r="1" fill="#FFEBEB"/><line x1="516" y1="596" x2="481" y2="661" stroke="blue" /><circle cx="637" cy="425" r="2" fill="#FFE2E2"/><line x1="481" y1="661" x2="637" y2="425" stroke="blue" /><circle cx="598" cy="408" r="1" fill="#FFEEEE"/><line x1="637" y1="425" x2="598" y2="408" stroke="blue" /><circle cx="600" cy="480" r="1" fill="#FFEBEB"/><line x1="598" y1="408" x2="600" y2="480" stroke="blue" /><circle cx="374" cy="512" r="1" fill="#FFEDED"/><line x1="600" y1="480" x2="374" y2="512" stroke="blue" /><circle cx="439" cy="398" r="2" fill="#FFE1E1"/><line x1="374" y1="512" x2="439" y2="398" stroke="blue" /><circle cx="549" cy="376" r="2" fill="#FFE2E2"/><line x1="439" y1="398" x2="549" y2="376" stroke="blue" /><circle cx="476" cy="376" r="2" fill="#FFE2E2"/><line x1="549" y1="376" x2="476" y2="376" stroke="blue" /><circle cx="588" cy="503" r="1" fill="#FFEFEF"/><line x1="476" y1="376" x2="588" y2="503" stroke="blue" /><circle cx="609" cy="342" r="1" fill="#FFEBEB"/><line x1="588" y1="503" x2="609" y2="342" stroke="blue" /><circle cx="579" cy="254" r="1" fill="#FFE7E7"/><line x1="609" y1="342" x2="579" y2="254" stroke="blue" /><circle cx="326" cy="735" r="1" fill="#FFE6E6"/><line x1="579" y1="254" x2="326" y2="735" stroke="blue" /><circle cx="357" cy="644" r="2" fill="#FFE3E3"/><line x1="326" y1="735" x2="357" y2="644" stroke="blue" /><circle cx="409" cy="486" r="1" fill="#FFEFEF"/><line x1="357" y1="644" x2="409" y2="486" stroke="blue" /><circle cx="540" cy="227" r="1" fill="#FFE9E9"/><line x1="409" y1="486" x2="540" y2="227" stroke="blue" /><circle cx="519" cy="626" r="1" fill="#FFF0F0"/><line x1="540" y1="227" x2="519" y2="626" stroke="blue" /><circle cx="581" cy="459" r="1" fill="#FFE5E5"/><line x1="519" y1="626" x2="581" y2="459" stroke="blue" /><circle cx="355" cy="714" r="1" fill="#FFE7E7"/><line x1="581" y1="459" x2="355" y2="714" stroke="blue" /><circle cx="549" cy="389" r="2" fill="#FFDFDF"/><line x1="355" y1="714" x2="549" y2="389" stroke="blue" /><circle cx="541" cy="301" r="2" fill="#FFE4E4"/><line x1="549" y1="389" x2="541" y2="301" stroke="blue" /><circle cx="515" cy="636" r="1" fill="#FFEFEF"/><line x1="541" y1="301" x2="515" y2="636" stroke="blue" /><circle cx="534" cy="389" r="1" fill="#FFE6E6"/><line x1="515" y1="636" x2="534" y2="389" stroke="blue" /><circle cx="582" cy="272" r="1" fill="#FFEAEA"/><line x1="534" y1="389" x2="582" y2="272" stroke="blue" /><circle cx="449" cy="215" r="1" fill="#FFEBEB"/><line x1="582" y1="272" x2="449" y2="215" stroke="blue" /><circle cx="432" cy="677" r="1" fill="#FFE9E9"/><line x1="449" y1="215" x2="432" y2="677" stroke="blue" /><circle cx="414" cy="272" r="1" fill="#FFEBEB"/><line x1="432" y1="677" x2="414" y2="272" stroke="blue" /><circle cx="682" cy="328" r="1" fill="#FFE8E8"/><line x1="414" y1="272" x2="682" y2="328" stroke="blue" /><circle cx="560" cy="306" r="1" fill="#FFE9E9"/><line x1="682" y1="328" x2="560" y2="306" stroke="blue" /><circle cx="362" cy="616" r="2" fill="#FFE2E2"/><line x1="560" y1="306" x2="362" y2="616" stroke="blue" /><circle cx="371" cy="408" r="2" fill="#FFDDDD"/><line x1="362" y1="616" x2="371" y2="408" stroke="blue" /><circle cx="422" cy="560" r="2" fill="#FFE2E2"/><line x1="371" y1="408" x2="422" y2="560" stroke="blue" /><circle cx="369" cy="685" r="1" fill="#FFE5E5"/><line x1="422" y1="560" x2="369" y2="685" stroke="blue" /><circle cx="571" cy="448" r="1" fill="#FFEAEA"/><line x1="369" y1="685" x2="571" y2="448" stroke="blue" /><circle cx="578" cy="300" r="2" fill="#FFE4E4"/><line x1="571" y1="448" x2="578" y2="300" stroke="blue" /><circle cx="405" cy="588" r="2" fill="#FFE3E3"/><line x1="578" y1="300" x2="405" y2="588" stroke="blue" /><circle cx="379" cy="585" r="2" fill="#FFE1E1"/><line x1="405" y1="588" x2="379" y2="585" stroke="blue" /><circle cx="401" cy="495" r="2" fill="#FFE0E0"/><line x1="379" y1="585" x2="401" y2="495" stroke="blue" /><circle cx="521" cy="434" r="1" fill="#FFE6E6"/><line x1="401" y1="495" x2="521" y2="434" stroke="blue" /><circle cx="536" cy="512" r="1" fill="#FFE7E7"/><line x1="521" y1="434" x2="536" y2="512" stroke="blue" /><circle cx="425" cy="513" r="1" fill="#FFE8E8"/><line x1="536" y1="512" x2="425" y2="513" stroke="blue" /><circle cx="484" cy="451" r="2" fill="#FFE3E3"/><line x1="425" y1="513" x2="484" y2="451" stroke="blue" /><circle cx="491" cy="260" r="1" fill="#FFEBEB"/><line x1="484" y1="451" x2="491" y2="260" stroke="blue" /><circle cx="533" cy="514" r="1" fill="#FFEEEE"/><line x1="491" y1="260" x2="533" y2="514" stroke="blue" /><circle cx="409" cy="602" r="2" fill="#FFE4E4"/><line x1="533" y1="514" x2="409" y2="602" stroke="blue" /><circle cx="590" cy="415" r="1" fill="#FFEEEE"/><line x1="409" y1="602" x2="590" y2="415" stroke="blue" /><circle cx="556" cy="518" r="1" fill="#FFECEC"/><line x1="590" y1="415" x2="556" y2="518" stroke="blue" /><circle cx="452" cy="436" r="2" fill="#FFE1E1"/><line x1="556" y1="518" x2="452" y2="436" stroke="blue" /><circle cx="306" cy="412" r="2" fill="#FFDDDD"/><line x1="452" y1="436" x2="306" y2="412" stroke="blue" /><circle cx="397" cy="463" r="2" fill="#FFDCDC"/><line x1="306" y1="412" x2="397" y2="463" stroke="blue" /><circle cx="454" cy="369" r="2" fill="#FFE0E0"/><line x1="397" y1="463" x2="454" y2="369" stroke="blue" /><circle cx="593" cy="362" r="1" fill="#FFEBEB"/><line x1="454" y1="369" x2="593" y2="362" stroke="blue" /><circle cx="632" cy="276" r="1" fill="#FFE7E7"/><line x1="593" y1="362" x2="632" y2="276" stroke="blue" /><circle cx="581" cy="534" r="1" fill="#FFF0F0"/><line x1="632" y1="276" x2="581" y2="534" stroke="blue" /><circle cx="489" cy="427" r="2" fill="#FFE0E0"/><line x1="581" y1="534" x2="489" y2="427" stroke="blue" /><circle cx="502" cy="288" r="1" fill="#FFECEC"/><line x1="489" y1="427" x2="502" y2="288" stroke="blue" /><circle cx="451" cy="607" r="1" fill="#FFE6E6"/><line x1="502" y1="288" x2="451" y2="607" stroke="blue" /><circle cx="540" cy="636" r="1" fill="#FFE9E9"/><line x1="451" y1="607" x2="540" y2="636" stroke="blue" /><circle cx="515" cy="682" r="1" fill="#FFE9E9"/><line x1="540" y1="636" x2="515" y2="682" stroke="blue" /><circle cx="542" cy="565" r="1" fill="#FFECEC"/><line x1="515" y1="682" x2="542" y2="565" stroke="blue" /><circle cx="424" cy="586" r="2" fill="#FFE3E3"/><line x1="542" y1="565" x2="424" y2="586" stroke="blue" /><circle cx="516" cy="342" r="1" fill="#FFE9E9"/><line x1="424" y1="586" x2="516" y2="342" stroke="blue" /><circle cx="503" cy="354" r="2" fill="#FFE3E3"/><line x1="516" y1="342" x2="503" y2="354" stroke="blue" /><circle cx="528" cy="676" r="1" fill="#FFECEC"/><line x1="503" y1="354" x2="528" y2="676" stroke="blue" /><circle cx="498" cy="657" r="1" fill="#FFEEEE"/><line x1="528" y1="676" x2="498" y2="657" stroke="blue" /><circle cx="569" cy="348" r="1" fill="#FFE8E8"/><line x1="498" y1="657" x2="569" y2="348" stroke="blue" /><circle cx="358" cy="634" r="2" fill="#FFE2E2"/><line x1="569" y1="348" x2="358" y2="634" stroke="blue" /><circle cx="431" cy="491" r="2" fill="#FFE1E1"/><line x1="358" y1="634" x2="431" y2="491" stroke="blue" /><circle cx="501" cy="423" r="2" fill="#FFE4E4"/><line x1="431" y1="491" x2="501" y2="423" stroke="blue" /><circle cx="384" cy="679" r="2" fill="#FFE3E3"/><line x1="501" y1="423" x2="384" y2="679" stroke="blue" /><circle cx="575" cy="422" r="1" fill="#FFEDED"/><line x1="384" y1="679" x2="575" y2="422" stroke="blue" /><circle cx="563" cy="412" r="2" fill="#FFE1E1"/><line x1="575" y1="422" x2="563" y2="412" stroke="blue" /><circle cx="577" cy="420" r="1" fill="#FFEAEA"/><line x1="563" y1="412" x2="577" y2="420" stroke="blue" /><circle cx="600" cy="361" r="1" fill="#FFECEC"/><line x1="577" y1="420" x2="600" y2="361" stroke="blue" /><circle cx="532" cy="573" r="1" fill="#FFEBEB"/><line x1="600" y1="361" x2="532" y2="573" stroke="blue" /><circle cx="484" cy="657" r="1" fill="#FFECEC"/><line x1="532" y1="573" x2="484" y2="657" stroke="blue" /><circle cx="478" cy="652" r="1" fill="#FFEBEB"/><line x1="484" y1="657" x2="478" y2="652" stroke="blue" /><circle cx="450" cy="425" r="2" fill="#FFE1E1"/><line x1="478" y1="652" x2="450" y2="425" stroke="blue" /><circle cx="565" cy="652" r="1" fill="#FFECEC"/><line x1="450" y1="425" x2="565" y2="652" stroke="blue" /><circle cx="365" cy="601" r="2" fill="#FFE2E2"/><line x1="565" y1="652" x2="365" y2="601" stroke="blue" /><circle cx="315" cy="520" r="2" fill="#FFE0E0"/><line x1="365" y1="601" x2="315" y2="520" stroke="blue" /><circle cx="427" cy="704" r="2" fill="#FFE4E4"/><line x1="315" y1="520" x2="427" y2="704" stroke="blue" /><circle cx="502" cy="539" r="1" fill="#FFE8E8"/><line x1="427" y1="704" x2="502" y2="539" stroke="blue" /><circle cx="543" cy="250" r="1" fill="#FFEAEA"/><line x1="502" y1="539" x2="543" y2="250" stroke="blue" /><circle cx="495" cy="520" r="1" fill="#FFE7E7"/><line x1="543" y1="250" x2="495" y2="520" stroke="blue" /><circle cx="535" cy="333" r="2" fill="#FFE3E3"/><line x1="495" y1="520" x2="535" y2="333" stroke="blue" /><circle cx="529" cy="511" r="1" fill="#FFE8E8"/><line x1="535" y1="333" x2="529" y2="511" stroke="blue" /><circle cx="531" cy="634" r="1" fill="#FFEAEA"/><line x1="529" y1="511" x2="531" y2="634" stroke="blue" /><circle cx="508" cy="386" r="1" fill="#FFE7E7"/><line x1="531" y1="634" x2="508" y2="386" stroke="blue" /><circle cx="492" cy="590" r="1" fill="#FFE8E8"/><line x1="508" y1="386" x2="492" y2="590" stroke="blue" /><circle cx="503" cy="472" r="2" fill="#FFE4E4"/><line x1="492" y1="590" x2="503" y2="472" stroke="blue" /><circle cx="628" cy="538" r="1" fill="#FFEFEF"/><line x1="503" y1="472" x2="628" y2="538" stroke="blue" /><circle cx="576" cy="634" r="1" fill="#FFEAEA"/><line x1="628" y1="538" x2="576" y2="634" stroke="blue" /><circle cx="618" cy="521" r="1" fill="#FFEEEE"/><line x1="576" y1="634" x2="618" y2="521" stroke="blue" /><circle cx="553" cy="491" r="1" fill="#FFEAEA"/><line x1="618" y1="521" x2="553" y2="491" stroke="blue" /><circle cx="575" cy="234" r="1" fill="#FFE7E7"/><line x1="553" y1="491" x2="575" y2="234" stroke="blue" /><circle cx="410" cy="361" r="2" fill="#FFDFDF"/><line x1="575" y1="234" x2="410" y2="361" stroke="blue" /><circle cx="556" cy="580" r="1" fill="#FFF0F0"/><line x1="410" y1="361" x2="556" y2="580" stroke="blue" /><circle cx="335" cy="743" r="1" fill="#FFE8E8"/><line x1="556" y1="580" x2="335" y2="743" stroke="blue" /><circle cx="414" cy="555" r="2" fill="#FFE0E0"/><line x1="335" y1="743" x2="414" y2="555" stroke="blue" /><circle cx="419" cy="506" r="1" fill="#FFF0F0"/><line x1="414" y1="555" x2="419" y2="506" stroke="blue" /><circle cx="353" cy="507" r="2" fill="#FFDFDF"/><line x1="419" y1="506" x2="353" y2="507" stroke="blue" /><circle cx="384" cy="443" r="2" fill="#FFDEDE"/><line x1="353" y1="507" x2="384" y2="443" stroke="blue" /><circle cx="371" cy="455" r="2" fill="#FFDEDE"/><line x1="384" y1="443" x2="371" y2="455" stroke="blue" /><circle cx="550" cy="502" r="1" fill="#FFE7E7"/><line x1="371" y1="455" x2="550" y2="502" stroke="blue" /><circle cx="480" cy="643" r="1" fill="#FFEBEB"/><line x1="550" y1="502" x2="480" y2="643" stroke="blue" /><circle cx="529" cy="323" r="1" fill="#FFE6E6"/><line x1="480" y1="643" x2="529" y2="323" stroke="blue" /><circle cx="566" cy="432" r="1" fill="#FFEAEA"/><line x1="529" y1="323" x2="566" y2="432" stroke="blue" /><circle cx="542" cy="394" r="1" fill="#FFE9E9"/><line x1="566" y1="432" x2="542" y2="394" stroke="blue" /><circle cx="464" cy="577" r="2" fill="#FFE1E1"/><line x1="542" y1="394" x2="464" y2="577" stroke="blue" /><circle cx="558" cy="276" r="1" fill="#FFE6E6"/><line x1="464" y1="577" x2="558" y2="276" stroke="blue" /><circle cx="459" cy="687" r="1" fill="#FFECEC"/><line x1="558" y1="276" x2="459" y2="687" stroke="blue" /><circle cx="592" cy="534" r="1" fill="#FFEEEE"/><line x1="459" y1="687" x2="592" y2="534" stroke="blue" /><circle cx="518" cy="422" r="2" fill="#FFE5E5"/><line x1="592" y1="534" x2="518" y2="422" stroke="blue" /><circle cx="570" cy="475" r="1" fill="#FFEBEB"/><line x1="518" y1="422" x2="570" y2="475" stroke="blue" /><circle cx="525" cy="553" r="2" fill="#FFE4E4"/><line x1="570" y1="475" x2="525" y2="553" stroke="blue" /><circle cx="557" cy="308" r="1" fill="#FFEAEA"/><line x1="525" y1="553" x2="557" y2="308" stroke="blue" /><circle cx="567" cy="541" r="1" fill="#FFF0F0"/><line x1="557" y1="308" x2="567" y2="541" stroke="blue" /><circle cx="489" cy="465" r="2" fill="#FFE3E3"/><line x1="567" y1="541" x2="489" y2="465" stroke="blue" /><circle cx="449" cy="409" r="2" fill="#FFE2E2"/><line x1="489" y1="465" x2="449" y2="409" stroke="blue" /><circle cx="567" cy="504" r="3" fill="#FFD8D8"/><line x1="449" y1="409" x2="567" y2="504" stroke="blue" /><polygon points="563,494 860,251 860,675 563,918" fill="#FFFFFF" fill-opacity="0.1" stroke="#202020"/><polygon points="563,494 139,324 436,81 860,251" fill="#FFFFFF" fill-opacity="0.1" stroke="#202020"/><polygon points="563,494 563,918 139,748 139,324" fill="#FFFFFF" fill-opacity="0.1" stroke="#202020"/> </g>
        </svg>